<mxfile host="Electron" modified="2023-05-11T07:05:05.286Z" agent="Mozilla/5.0 (Windows NT 10.0; Win64; x64) AppleWebKit/537.36 (KHTML, like Gecko) draw.io/21.2.8 Chrome/112.0.5615.165 Electron/24.2.0 Safari/537.36" etag="Q5NtxCLCnxpcA_iqUYDt" version="21.2.8" type="device">
  <diagram name="Page-1" id="W4Vuh-kM-0bNJaoxzjhn">
    <mxGraphModel dx="2268" dy="820" grid="1" gridSize="10" guides="1" tooltips="1" connect="1" arrows="1" fold="1" page="1" pageScale="1" pageWidth="850" pageHeight="1100" math="0" shadow="0">
      <root>
        <mxCell id="0" />
        <mxCell id="1" parent="0" />
        <mxCell id="Cb_ZOrRYchWimSt3MoJY-1" value="&lt;i style=&quot;border-color: var(--border-color); color: rgb(0, 153, 0);&quot;&gt;&lt;font style=&quot;border-color: var(--border-color); font-size: 15px;&quot;&gt;&amp;lt;&amp;lt;HttpServlet&amp;gt;&amp;gt;&lt;/font&gt;&lt;/i&gt;&lt;font color=&quot;#009900&quot; style=&quot;&quot;&gt;&lt;b style=&quot;font-size: 18px;&quot;&gt;&lt;br&gt;addAuction&lt;/b&gt;&lt;/font&gt;" style="rounded=0;whiteSpace=wrap;html=1;strokeWidth=3;fillColor=default;strokeColor=#009900;" parent="1" vertex="1">
          <mxGeometry x="-160" y="220" width="150" height="60" as="geometry" />
        </mxCell>
        <mxCell id="Cb_ZOrRYchWimSt3MoJY-2" value="&lt;font color=&quot;#009900&quot; style=&quot;&quot;&gt;&lt;i style=&quot;&quot;&gt;&lt;font style=&quot;font-size: 15px;&quot;&gt;&amp;lt;&amp;lt;Class&amp;gt;&amp;gt;&lt;/font&gt;&lt;/i&gt;&lt;br&gt;&lt;span style=&quot;font-size: 18px;&quot;&gt;&lt;b&gt;Auction&lt;/b&gt;&lt;/span&gt;&lt;br&gt;&lt;/font&gt;" style="rounded=0;whiteSpace=wrap;html=1;strokeWidth=3;fillColor=default;strokeColor=#009900;" parent="1" vertex="1">
          <mxGeometry x="630" y="220" width="150" height="60" as="geometry" />
        </mxCell>
        <mxCell id="Cb_ZOrRYchWimSt3MoJY-3" value="" style="endArrow=none;html=1;rounded=0;entryX=0.5;entryY=1;entryDx=0;entryDy=0;strokeWidth=2;fillColor=#d5e8d4;strokeColor=#009900;dashed=1;" parent="1" source="Cb_ZOrRYchWimSt3MoJY-6" target="Cb_ZOrRYchWimSt3MoJY-1" edge="1">
          <mxGeometry width="50" height="50" relative="1" as="geometry">
            <mxPoint x="-85" y="670" as="sourcePoint" />
            <mxPoint x="160" y="440" as="targetPoint" />
          </mxGeometry>
        </mxCell>
        <mxCell id="Cb_ZOrRYchWimSt3MoJY-4" value="" style="endArrow=none;html=1;rounded=0;entryX=0.5;entryY=1;entryDx=0;entryDy=0;strokeWidth=2;fillColor=#d5e8d4;strokeColor=#009900;dashed=1;" parent="1" source="Cb_ZOrRYchWimSt3MoJY-9" target="Cb_ZOrRYchWimSt3MoJY-2" edge="1">
          <mxGeometry width="50" height="50" relative="1" as="geometry">
            <mxPoint x="705" y="670" as="sourcePoint" />
            <mxPoint x="425" y="350" as="targetPoint" />
          </mxGeometry>
        </mxCell>
        <mxCell id="Cb_ZOrRYchWimSt3MoJY-5" value="" style="endArrow=none;html=1;rounded=0;entryX=0.412;entryY=1.004;entryDx=0;entryDy=0;strokeWidth=2;fillColor=#d5e8d4;strokeColor=#009900;dashed=1;entryPerimeter=0;" parent="1" target="Cb_ZOrRYchWimSt3MoJY-6" edge="1">
          <mxGeometry width="50" height="50" relative="1" as="geometry">
            <mxPoint x="-87" y="880" as="sourcePoint" />
            <mxPoint x="-87.5" y="840" as="targetPoint" />
          </mxGeometry>
        </mxCell>
        <mxCell id="Cb_ZOrRYchWimSt3MoJY-6" value="" style="rounded=0;whiteSpace=wrap;html=1;fillColor=#FFFFFF;strokeWidth=2;strokeColor=#009900;" parent="1" vertex="1">
          <mxGeometry x="-97.5" y="340" width="25" height="490" as="geometry" />
        </mxCell>
        <mxCell id="Cb_ZOrRYchWimSt3MoJY-7" value="" style="endArrow=none;html=1;rounded=0;strokeWidth=2;strokeColor=#009900;startArrow=classic;startFill=1;entryX=1.008;entryY=0.241;entryDx=0;entryDy=0;entryPerimeter=0;" parent="1" edge="1">
          <mxGeometry width="50" height="50" relative="1" as="geometry">
            <mxPoint x="690" y="632" as="sourcePoint" />
            <mxPoint x="-72.50000000000018" y="631.8399999999999" as="targetPoint" />
          </mxGeometry>
        </mxCell>
        <mxCell id="Cb_ZOrRYchWimSt3MoJY-8" value="" style="endArrow=none;html=1;rounded=0;entryX=0.5;entryY=1;entryDx=0;entryDy=0;strokeWidth=2;fillColor=#d5e8d4;strokeColor=#009900;dashed=1;" parent="1" target="Cb_ZOrRYchWimSt3MoJY-9" edge="1">
          <mxGeometry width="50" height="50" relative="1" as="geometry">
            <mxPoint x="705" y="880" as="sourcePoint" />
            <mxPoint x="703.75" y="626" as="targetPoint" />
          </mxGeometry>
        </mxCell>
        <mxCell id="Cb_ZOrRYchWimSt3MoJY-9" value="" style="rounded=0;whiteSpace=wrap;html=1;fillColor=#FFFFFF;strokeWidth=2;strokeColor=#009900;" parent="1" vertex="1">
          <mxGeometry x="692.3" y="606" width="25" height="84" as="geometry" />
        </mxCell>
        <mxCell id="Cb_ZOrRYchWimSt3MoJY-10" value="&lt;font style=&quot;&quot;&gt;&lt;i style=&quot;&quot;&gt;&lt;font style=&quot;font-size: 12px;&quot;&gt;&amp;lt;&amp;lt;static&amp;gt;&amp;gt;&lt;/font&gt;&lt;/i&gt;&lt;br&gt;&lt;span style=&quot;font-size: 14px;&quot;&gt;createAuctionWithArticles(user.getId(), terminates_at,&lt;/span&gt;&lt;br&gt;&lt;span style=&quot;font-size: 14px;&quot;&gt;min_mid_delta, articles_id)&lt;/span&gt;&lt;/font&gt;" style="text;html=1;align=center;verticalAlign=middle;resizable=0;points=[];autosize=1;strokeColor=none;fillColor=none;" parent="1" vertex="1">
          <mxGeometry x="-40.2" y="578" width="350" height="60" as="geometry" />
        </mxCell>
        <mxCell id="Cb_ZOrRYchWimSt3MoJY-11" value="&lt;font color=&quot;#009900&quot; style=&quot;&quot;&gt;&lt;i style=&quot;&quot;&gt;&lt;font style=&quot;font-size: 15px;&quot;&gt;&amp;lt;&amp;lt;HttpServlet&amp;gt;&amp;gt;&lt;/font&gt;&lt;/i&gt;&lt;br&gt;&lt;b style=&quot;font-size: 18px;&quot;&gt;sell&lt;/b&gt;&lt;/font&gt;" style="rounded=0;whiteSpace=wrap;html=1;strokeWidth=3;fillColor=default;strokeColor=#009900;" parent="1" vertex="1">
          <mxGeometry x="820" y="220" width="150" height="60" as="geometry" />
        </mxCell>
        <mxCell id="Cb_ZOrRYchWimSt3MoJY-12" value="" style="endArrow=none;html=1;rounded=0;entryX=0.5;entryY=1;entryDx=0;entryDy=0;strokeWidth=2;fillColor=#d5e8d4;strokeColor=#009900;dashed=1;" parent="1" source="Cb_ZOrRYchWimSt3MoJY-14" target="Cb_ZOrRYchWimSt3MoJY-11" edge="1">
          <mxGeometry width="50" height="50" relative="1" as="geometry">
            <mxPoint x="895" y="670" as="sourcePoint" />
            <mxPoint x="615" y="350" as="targetPoint" />
          </mxGeometry>
        </mxCell>
        <mxCell id="Cb_ZOrRYchWimSt3MoJY-13" value="" style="endArrow=none;html=1;rounded=0;entryX=0.5;entryY=1;entryDx=0;entryDy=0;strokeWidth=2;fillColor=#d5e8d4;strokeColor=#009900;dashed=1;" parent="1" target="Cb_ZOrRYchWimSt3MoJY-14" edge="1">
          <mxGeometry width="50" height="50" relative="1" as="geometry">
            <mxPoint x="893" y="880" as="sourcePoint" />
            <mxPoint x="892.5" y="660" as="targetPoint" />
          </mxGeometry>
        </mxCell>
        <mxCell id="Cb_ZOrRYchWimSt3MoJY-14" value="" style="rounded=0;whiteSpace=wrap;html=1;fillColor=#FFFFFF;strokeWidth=2;strokeColor=#009900;" parent="1" vertex="1">
          <mxGeometry x="880" y="790" width="25" height="60" as="geometry" />
        </mxCell>
        <mxCell id="Cb_ZOrRYchWimSt3MoJY-15" value="" style="endArrow=none;html=1;rounded=0;strokeWidth=2;strokeColor=#009900;startArrow=classic;startFill=1;entryX=1.049;entryY=0.611;entryDx=0;entryDy=0;entryPerimeter=0;" parent="1" edge="1">
          <mxGeometry width="50" height="50" relative="1" as="geometry">
            <mxPoint x="878.75" y="807" as="sourcePoint" />
            <mxPoint x="-73.77500000000009" y="806.6400000000001" as="targetPoint" />
          </mxGeometry>
        </mxCell>
        <mxCell id="Cb_ZOrRYchWimSt3MoJY-16" value="&lt;font style=&quot;font-size: 14px;&quot;&gt;resp.sendRedirect&lt;/font&gt;" style="text;html=1;align=center;verticalAlign=middle;resizable=0;points=[];autosize=1;strokeColor=none;fillColor=none;" parent="1" vertex="1">
          <mxGeometry x="62.5" y="780" width="140" height="30" as="geometry" />
        </mxCell>
        <mxCell id="Cb_ZOrRYchWimSt3MoJY-17" value="" style="endArrow=none;html=1;rounded=0;exitX=0;exitY=0.25;exitDx=0;exitDy=0;strokeWidth=2;strokeColor=#009900;startArrow=classic;startFill=1;" parent="1" edge="1">
          <mxGeometry width="50" height="50" relative="1" as="geometry">
            <mxPoint x="-97.5" y="360" as="sourcePoint" />
            <mxPoint x="-220" y="360" as="targetPoint" />
          </mxGeometry>
        </mxCell>
        <mxCell id="Cb_ZOrRYchWimSt3MoJY-18" value="doPost" style="text;html=1;align=center;verticalAlign=middle;resizable=0;points=[];autosize=1;strokeColor=none;fillColor=none;" parent="1" vertex="1">
          <mxGeometry x="-180" y="334" width="60" height="30" as="geometry" />
        </mxCell>
        <mxCell id="Cb_ZOrRYchWimSt3MoJY-19" value="&lt;font style=&quot;font-size: 14px;&quot;&gt;&lt;i&gt;POST&lt;/i&gt;&lt;br&gt;&lt;b&gt;/addAuction&lt;/b&gt;&lt;/font&gt;&lt;br&gt;articlesId&lt;br&gt;terminatesAt&lt;br&gt;minBidDelta" style="text;html=1;align=right;verticalAlign=middle;resizable=0;points=[];autosize=1;strokeColor=none;fillColor=none;" parent="1" vertex="1">
          <mxGeometry x="-220" y="385" width="100" height="90" as="geometry" />
        </mxCell>
        <mxCell id="Cb_ZOrRYchWimSt3MoJY-20" value="&lt;font color=&quot;#009900&quot; style=&quot;&quot;&gt;&lt;span style=&quot;font-size: 15px;&quot;&gt;&lt;i&gt;&amp;lt;&amp;lt;HttpSession&amp;gt;&amp;gt;&lt;/i&gt;&lt;/span&gt;&lt;br&gt;&lt;span style=&quot;font-size: 18px;&quot;&gt;&lt;b&gt;Session&lt;/b&gt;&lt;/span&gt;&lt;br&gt;&lt;/font&gt;" style="rounded=0;whiteSpace=wrap;html=1;strokeWidth=3;fillColor=default;strokeColor=#009900;" parent="1" vertex="1">
          <mxGeometry x="250" y="220" width="150" height="60" as="geometry" />
        </mxCell>
        <mxCell id="Cb_ZOrRYchWimSt3MoJY-21" value="" style="endArrow=none;html=1;rounded=0;entryX=0.5;entryY=1;entryDx=0;entryDy=0;strokeWidth=2;fillColor=#d5e8d4;strokeColor=#009900;dashed=1;" parent="1" source="Cb_ZOrRYchWimSt3MoJY-23" target="Cb_ZOrRYchWimSt3MoJY-20" edge="1">
          <mxGeometry width="50" height="50" relative="1" as="geometry">
            <mxPoint x="325" y="670" as="sourcePoint" />
            <mxPoint x="45" y="350" as="targetPoint" />
          </mxGeometry>
        </mxCell>
        <mxCell id="Cb_ZOrRYchWimSt3MoJY-22" value="" style="endArrow=none;html=1;rounded=0;entryX=0.5;entryY=1;entryDx=0;entryDy=0;strokeWidth=2;fillColor=#d5e8d4;strokeColor=#009900;dashed=1;" parent="1" target="Cb_ZOrRYchWimSt3MoJY-23" edge="1">
          <mxGeometry width="50" height="50" relative="1" as="geometry">
            <mxPoint x="325" y="880" as="sourcePoint" />
            <mxPoint x="325" y="490" as="targetPoint" />
          </mxGeometry>
        </mxCell>
        <mxCell id="Cb_ZOrRYchWimSt3MoJY-23" value="" style="rounded=0;whiteSpace=wrap;html=1;fillColor=#FFFFFF;strokeWidth=2;strokeColor=#009900;" parent="1" vertex="1">
          <mxGeometry x="312.5" y="340" width="25" height="130" as="geometry" />
        </mxCell>
        <mxCell id="Cb_ZOrRYchWimSt3MoJY-24" value="" style="endArrow=none;html=1;rounded=0;strokeWidth=2;strokeColor=#009900;startArrow=classic;startFill=1;" parent="1" edge="1">
          <mxGeometry width="50" height="50" relative="1" as="geometry">
            <mxPoint x="310" y="370" as="sourcePoint" />
            <mxPoint x="-70" y="370" as="targetPoint" />
          </mxGeometry>
        </mxCell>
        <mxCell id="Cb_ZOrRYchWimSt3MoJY-25" value="&lt;font style=&quot;font-size: 14px;&quot;&gt;getAttribute(&quot;user&quot;)&lt;/font&gt;" style="text;html=1;align=center;verticalAlign=middle;resizable=0;points=[];autosize=1;strokeColor=none;fillColor=none;" parent="1" vertex="1">
          <mxGeometry x="63" y="344" width="140" height="30" as="geometry" />
        </mxCell>
        <mxCell id="Cb_ZOrRYchWimSt3MoJY-26" value="" style="endArrow=none;html=1;rounded=0;strokeWidth=2;strokeColor=#009900;startArrow=classic;startFill=1;" parent="1" edge="1">
          <mxGeometry width="50" height="50" relative="1" as="geometry">
            <mxPoint x="-70" y="440" as="sourcePoint" />
            <mxPoint x="310" y="440" as="targetPoint" />
          </mxGeometry>
        </mxCell>
        <mxCell id="Cb_ZOrRYchWimSt3MoJY-27" value="&lt;font style=&quot;font-size: 14px;&quot;&gt;&lt;i&gt;User&lt;/i&gt; user&lt;/font&gt;" style="text;html=1;align=center;verticalAlign=middle;resizable=0;points=[];autosize=1;strokeColor=none;fillColor=none;" parent="1" vertex="1">
          <mxGeometry x="93.5" y="416" width="80" height="30" as="geometry" />
        </mxCell>
        <mxCell id="Cb_ZOrRYchWimSt3MoJY-28" value="" style="group" parent="1" vertex="1" connectable="0">
          <mxGeometry x="-97.5" y="870" width="20" height="20" as="geometry" />
        </mxCell>
        <mxCell id="Cb_ZOrRYchWimSt3MoJY-29" value="" style="endArrow=none;html=1;rounded=0;strokeWidth=2;fillColor=#d5e8d4;strokeColor=#009900;" parent="Cb_ZOrRYchWimSt3MoJY-28" edge="1">
          <mxGeometry width="50" height="50" relative="1" as="geometry">
            <mxPoint y="20" as="sourcePoint" />
            <mxPoint x="20" as="targetPoint" />
          </mxGeometry>
        </mxCell>
        <mxCell id="Cb_ZOrRYchWimSt3MoJY-30" value="" style="endArrow=none;html=1;rounded=0;strokeWidth=2;fillColor=#d5e8d4;strokeColor=#009900;" parent="Cb_ZOrRYchWimSt3MoJY-28" edge="1">
          <mxGeometry width="50" height="50" relative="1" as="geometry">
            <mxPoint x="20" y="20" as="sourcePoint" />
            <mxPoint as="targetPoint" />
          </mxGeometry>
        </mxCell>
        <mxCell id="Cb_ZOrRYchWimSt3MoJY-32" value="&lt;font color=&quot;#009900&quot; style=&quot;&quot;&gt;&lt;i style=&quot;&quot;&gt;&lt;font style=&quot;font-size: 15px;&quot;&gt;&amp;lt;&amp;lt;Class&amp;gt;&amp;gt;&lt;/font&gt;&lt;/i&gt;&lt;br&gt;&lt;span style=&quot;font-size: 18px;&quot;&gt;&lt;b&gt;Article&lt;/b&gt;&lt;/span&gt;&lt;br&gt;&lt;/font&gt;" style="rounded=0;whiteSpace=wrap;html=1;strokeWidth=3;fillColor=default;strokeColor=#009900;" parent="1" vertex="1">
          <mxGeometry x="441" y="220" width="150" height="60" as="geometry" />
        </mxCell>
        <mxCell id="Cb_ZOrRYchWimSt3MoJY-33" value="" style="endArrow=none;html=1;rounded=0;entryX=0.5;entryY=1;entryDx=0;entryDy=0;strokeWidth=2;fillColor=#d5e8d4;strokeColor=#009900;dashed=1;" parent="1" source="Cb_ZOrRYchWimSt3MoJY-35" target="Cb_ZOrRYchWimSt3MoJY-32" edge="1">
          <mxGeometry width="50" height="50" relative="1" as="geometry">
            <mxPoint x="516" y="670" as="sourcePoint" />
            <mxPoint x="236" y="350" as="targetPoint" />
          </mxGeometry>
        </mxCell>
        <mxCell id="Cb_ZOrRYchWimSt3MoJY-34" value="" style="endArrow=none;html=1;rounded=0;entryX=0.5;entryY=1;entryDx=0;entryDy=0;strokeWidth=2;fillColor=#d5e8d4;strokeColor=#009900;dashed=1;" parent="1" target="Cb_ZOrRYchWimSt3MoJY-35" edge="1">
          <mxGeometry width="50" height="50" relative="1" as="geometry">
            <mxPoint x="516" y="880" as="sourcePoint" />
            <mxPoint x="514.75" y="626" as="targetPoint" />
          </mxGeometry>
        </mxCell>
        <mxCell id="Cb_ZOrRYchWimSt3MoJY-35" value="" style="rounded=0;whiteSpace=wrap;html=1;fillColor=#FFFFFF;strokeWidth=2;strokeColor=#009900;" parent="1" vertex="1">
          <mxGeometry x="503.5" y="500" width="25" height="80" as="geometry" />
        </mxCell>
        <mxCell id="Cb_ZOrRYchWimSt3MoJY-36" value="" style="endArrow=none;html=1;rounded=0;strokeWidth=2;strokeColor=#009900;startArrow=classic;startFill=1;entryX=1.008;entryY=0.241;entryDx=0;entryDy=0;entryPerimeter=0;" parent="1" edge="1">
          <mxGeometry width="50" height="50" relative="1" as="geometry">
            <mxPoint x="500" y="514" as="sourcePoint" />
            <mxPoint x="-73.30000000000018" y="513.8399999999999" as="targetPoint" />
          </mxGeometry>
        </mxCell>
        <mxCell id="Cb_ZOrRYchWimSt3MoJY-37" value="&lt;font style=&quot;&quot;&gt;&lt;i style=&quot;&quot;&gt;&lt;font style=&quot;font-size: 12px;&quot;&gt;&amp;lt;&amp;lt;static&amp;gt;&amp;gt;&lt;/font&gt;&lt;/i&gt;&lt;br&gt;&lt;span style=&quot;font-size: 14px;&quot;&gt;checkOwner(user.getId(), articles_id)&lt;/span&gt;&lt;/font&gt;" style="text;html=1;align=center;verticalAlign=middle;resizable=0;points=[];autosize=1;strokeColor=none;fillColor=none;" parent="1" vertex="1">
          <mxGeometry x="9" y="477" width="250" height="40" as="geometry" />
        </mxCell>
        <mxCell id="Cb_ZOrRYchWimSt3MoJY-38" value="" style="endArrow=none;html=1;rounded=0;strokeWidth=2;strokeColor=#009900;startArrow=classic;startFill=1;" parent="1" edge="1">
          <mxGeometry width="50" height="50" relative="1" as="geometry">
            <mxPoint x="-70.80000000000018" y="553.8399999999999" as="sourcePoint" />
            <mxPoint x="500" y="554" as="targetPoint" />
          </mxGeometry>
        </mxCell>
        <mxCell id="Cb_ZOrRYchWimSt3MoJY-39" value="&lt;font style=&quot;font-size: 14px;&quot;&gt;&lt;i&gt;boolean&lt;/i&gt; result&lt;/font&gt;" style="text;html=1;align=center;verticalAlign=middle;resizable=0;points=[];autosize=1;strokeColor=none;fillColor=none;" parent="1" vertex="1">
          <mxGeometry x="83.5" y="530" width="110" height="30" as="geometry" />
        </mxCell>
      </root>
    </mxGraphModel>
  </diagram>
</mxfile>
